<svg xmlns="http://www.w3.org/2000/svg" viewBox="0 0 117.37 58.88"><defs><style>.cls-1{fill:#fff;}</style></defs><g id="Capa_2" data-name="Capa 2"><g id="Capa_1-2" data-name="Capa 1"><path class="cls-1" d="M114.77,28.15l-3.18.66a2.53,2.53,0,0,1-3-2.48V3.13A3.13,3.13,0,0,0,105.35,0a3,3,0,0,0-2.1.88L74.46,28.57A2.23,2.23,0,0,1,70.69,27V3.22A3.21,3.21,0,0,0,65.25.91L36.62,28.55A2.23,2.23,0,0,1,32.84,27V3.22A3.21,3.21,0,0,0,27.4.91L.66,27.05a2.17,2.17,0,0,0-.6,2.06,2.19,2.19,0,0,0,2.59,1.61l3.14-.65a2.54,2.54,0,0,1,3.05,2.48V55.76A3.12,3.12,0,0,0,14.13,58L37.85,34.55l5-5.16a2.23,2.23,0,0,1,3.83,1.55V55.76A3.13,3.13,0,0,0,52,58L80.7,29.39a2.23,2.23,0,0,1,3.83,1.55V55.67A3.22,3.22,0,0,0,90,58l26.73-26.15a2.06,2.06,0,0,0,.49-.71,2.17,2.17,0,0,0-2.43-3Z"/></g></g></svg>