<svg xmlns="http://www.w3.org/2000/svg" viewBox="0 0 272.65 61.35"><defs><style>.cls-1{fill:#fff;}</style></defs><g id="Capa_2" data-name="Capa 2"><g id="Capa_1-2" data-name="Capa 1"><path class="cls-1" d="M114.77,30.62l-3.18.66a2.54,2.54,0,0,1-3-2.48V5.59a3.12,3.12,0,0,0-3.19-3.12,3,3,0,0,0-2.1.88L74.46,31a2.22,2.22,0,0,1-3.77-1.6V5.68a3.21,3.21,0,0,0-5.44-2.31L36.62,31a2.23,2.23,0,0,1-3.78-1.61V5.68A3.21,3.21,0,0,0,27.4,3.37L.66,29.51a2.17,2.17,0,0,0,2,3.68l3.14-.65A2.53,2.53,0,0,1,8.84,35v23.2a3.12,3.12,0,0,0,5.29,2.25L37.85,37l5-5.16a2.23,2.23,0,0,1,3.83,1.55V58.22A3.13,3.13,0,0,0,52,60.47L80.7,31.85a2.23,2.23,0,0,1,3.83,1.55V58.13a3.21,3.21,0,0,0,3.19,3.22A3.17,3.17,0,0,0,90,60.44L116.71,34.3a2.15,2.15,0,0,0,.49-.71,2.22,2.22,0,0,0,.17-.85A2.16,2.16,0,0,0,114.77,30.62Z"/><path class="cls-1" d="M152.65,24.26V15.43c0-2.67-.1-3.64-.5-4.33a2.62,2.62,0,0,0-2.43-1.24,4.24,4.24,0,0,0-2.93,1.24c-1.2,1.26-1.64,2.86-1.64,5.36v7.8h-2.63v-9c0-2.53-.06-3.2-.43-4a2.49,2.49,0,0,0-2.57-1.4,4.31,4.31,0,0,0-3.33,1.77c-.8,1-1.17,2.2-1.17,4.76v7.87h-2.63V7.8H135v2.56a6.51,6.51,0,0,1,5.44-2.83,4.25,4.25,0,0,1,4.43,3.1,6.45,6.45,0,0,1,5.76-3.07,4.16,4.16,0,0,1,4.47,3.6,29.93,29.93,0,0,1,.16,4.63v8.47Z"/><path class="cls-1" d="M168.87,12.79c0-2.13-1.14-3.19-3.4-3.19-2.54,0-3.67,1.06-3.87,3.4L159,12.69c.27-3.43,2.9-5.33,6.63-5.33A5.9,5.9,0,0,1,170.17,9c.9.93,1.23,2.33,1.23,4.83v5.3a19.69,19.69,0,0,0,.1,2.19c.1.7.57,1,1.4,1a3.38,3.38,0,0,0,.63-.07v2a8.89,8.89,0,0,1-1.36.1c-2.2,0-3-.83-3.2-2.53a6.2,6.2,0,0,1-5.47,2.73c-2.86,0-5.13-1.86-5.13-4.63a4.52,4.52,0,0,1,3.07-4.4,26.4,26.4,0,0,1,7.43-1.33Zm0,3.3a20.64,20.64,0,0,0-6,1.07,2.7,2.7,0,0,0-1.93,2.6c0,1.76,1.23,2.63,3.1,2.63a4.64,4.64,0,0,0,4.6-3.6,9.22,9.22,0,0,0,.2-1.83Z"/><path class="cls-1" d="M175.82,24.26V7.8h2.5v2.66A4.81,4.81,0,0,1,183,7.6a5.58,5.58,0,0,1,1.5.2v2.8a3.46,3.46,0,0,0-1.8-.44,3.82,3.82,0,0,0-3.6,2.1,8.44,8.44,0,0,0-.63,3.77v8.23Z"/><path class="cls-1" d="M197.78,24.26l-5.3-8.33-3,3.13v5.2h-2.6V.73h2.6V16l7.4-8.23h3.23l-5.8,6.29,6.54,10.17Z"/><path class="cls-1" d="M216.06,20a6.83,6.83,0,0,1-6.83,4.67c-5.13,0-7.79-3.5-7.79-8.83,0-5.17,3.09-8.47,7.63-8.47s7,3.14,7,9.07h-12c0,3.59,1.83,6,5.2,6,2,0,3.76-.73,4.43-3.2ZM209,9.53c-2.5,0-4.5,1.5-4.87,4.83h9.27C213.16,10.86,211.43,9.53,209,9.53Z"/><path class="cls-1" d="M226.49,24.16a7.75,7.75,0,0,1-2.27.33c-2.23,0-3.73-.8-3.73-4.13V10h-2.93V7.8h3V2.47h2.6V7.8h3.3V10h-3.3v9.69c0,1.83.53,2.6,1.87,2.6a3.89,3.89,0,0,0,1.5-.33Z"/><path class="cls-1" d="M229.15,3.7v-3h2.7v3Zm0,20.56V7.8h2.63V24.26Z"/><path class="cls-1" d="M247,24.26V14.33a6,6,0,0,0-.66-3.27,3,3,0,0,0-2.74-1.2,4.5,4.5,0,0,0-3.33,1.7c-1.16,1.4-1.23,3.13-1.23,4.8v7.9h-2.63V7.8H239v2.56a6.52,6.52,0,0,1,5.53-2.83,4.51,4.51,0,0,1,4.26,2.2c.61,1,.77,2.2.77,4.46V24.26Z"/><path class="cls-1" d="M264.62,21.66a5.69,5.69,0,0,1-5.13,2.63c-4,0-6.5-3.17-6.5-8.33s2.8-8.43,6.8-8.43a5.38,5.38,0,0,1,4.9,2.37V7.8h2.63v16c0,3.16-.66,5-2.3,6.26a8.66,8.66,0,0,1-4.93,1.37c-3.73,0-6-1.87-6.7-5l2.77-.7a3.82,3.82,0,0,0,4.1,3.46,4.1,4.1,0,0,0,3.46-1.3c.74-.93.9-2.36.9-4.39ZM260.32,9.8c-2.83,0-4.63,2.3-4.63,6,0,4,1.77,6.36,4.53,6.36s4.4-2.2,4.4-5.86C264.62,12.36,263.26,9.8,260.32,9.8Z"/><path class="cls-1" d="M145,58a7.27,7.27,0,0,1-.74,0c-1.42,0-2.16-.68-2.16-1.93a3.15,3.15,0,0,1,.13-.87,6.21,6.21,0,0,1-5.64,3.09,4,4,0,0,1-4.22-4.06,4.5,4.5,0,0,1,1.9-3.8c1.58-1.06,3.42-1.45,9.28-1.81l.19-.8a11.57,11.57,0,0,0,.3-2.09c0-1.71-1.33-2.55-3.45-2.55a4.43,4.43,0,0,0-4.77,3.64l-1.26-.29c.78-2.83,2.64-4.44,6.19-4.44,2.9,0,4.51,1.28,4.51,3.6a18.16,18.16,0,0,1-.52,3.13l-1.09,5a9.73,9.73,0,0,0-.26,1.8c0,.94.42,1.29,1.42,1.29a2.71,2.71,0,0,0,.42,0Zm-1.71-8.28c-3.35.16-5.83.45-7.44,1.16a3.2,3.2,0,0,0-2.19,3.31,2.9,2.9,0,0,0,3.22,3,5.33,5.33,0,0,0,3.93-1.7A9.67,9.67,0,0,0,143,51Z"/><path class="cls-1" d="M157.58,58l1.77-8a19.39,19.39,0,0,0,.58-3.87c0-1.9-1-2.77-2.87-2.77a5.79,5.79,0,0,0-4.38,2.13c-1.32,1.45-1.77,3-2.38,5.8L148.85,58h-1.26L151,42.46h1.25l-.71,3a6.49,6.49,0,0,1,5.54-3.29c2.68,0,4.13,1.23,4.13,3.87a17.78,17.78,0,0,1-.58,3.8L158.83,58Z"/><path class="cls-1" d="M175.13,58H173.9l.65-2.81a5.72,5.72,0,0,1-5.16,3.06c-3.28,0-5.15-2.15-5.15-5.83,0-5.63,3.45-10.18,8-10.18,2.35,0,3.83,1,4.41,3.1l2.23-10.09h1.25Zm-1.26-3.42a14,14,0,0,0,2-7.18c0-2.77-1.26-4.06-3.64-4.06-3.74,0-6.7,4-6.7,9.12,0,3,1.48,4.7,3.86,4.7A5.36,5.36,0,0,0,173.87,54.54Z"/><path class="cls-1" d="M206.27,58V49.42c0-2.58-.1-3.51-.48-4.19A2.55,2.55,0,0,0,203.43,44a4.12,4.12,0,0,0-2.83,1.19C199.44,46.46,199,48,199,50.42V58h-2.54v-8.7c0-2.45-.07-3.09-.42-3.87A2.41,2.41,0,0,0,193.58,44a4.15,4.15,0,0,0-3.22,1.71c-.78,1-1.13,2.12-1.13,4.6V58h-2.55V42h2.55v2.48a6.26,6.26,0,0,1,5.25-2.74,4.11,4.11,0,0,1,4.28,3,6.27,6.27,0,0,1,5.58-3,4,4,0,0,1,4.31,3.48,27.83,27.83,0,0,1,.16,4.47V58Z"/><path class="cls-1" d="M226.23,53.83a6.6,6.6,0,0,1-6.6,4.51c-5,0-7.54-3.38-7.54-8.53s3-8.19,7.38-8.19,6.76,3,6.79,8.77H214.67c0,3.47,1.77,5.79,5,5.79,1.94,0,3.64-.7,4.29-3.09ZM219.4,43.72c-2.41,0-4.34,1.45-4.7,4.67h9C223.43,45,221.76,43.72,219.4,43.72Z"/><path class="cls-1" d="M240,58V55.57a5.88,5.88,0,0,1-5.15,2.68c-3.71,0-6.12-3.13-6.12-8.25s2.93-8.22,6.51-8.22c2.67,0,3.89,1,4.76,2.32V35.21h2.55V58ZM235.6,44c-2.7,0-4.25,2.12-4.25,6.05s1.61,6,4.12,6c2.68,0,4.54-2.26,4.54-5.8C240,46.2,238.37,44,235.6,44Z"/><path class="cls-1" d="M246.9,38.08V35.21h2.61v2.87Zm0,19.88V42h2.55V58Z"/><path class="cls-1" d="M262.81,46.87q0-3.09-3.28-3.09c-2.45,0-3.55,1-3.74,3.29l-2.55-.29c.26-3.32,2.81-5.16,6.41-5.16a5.73,5.73,0,0,1,4.42,1.58c.87.9,1.19,2.26,1.19,4.67V53a18.61,18.61,0,0,0,.1,2.12c.09.68.54.94,1.35.94a4.22,4.22,0,0,0,.61-.07v1.93A8.38,8.38,0,0,1,266,58c-2.13,0-2.93-.8-3.09-2.45a6,6,0,0,1-5.28,2.64c-2.78,0-5-1.8-5-4.47a4.37,4.37,0,0,1,3-4.26,25.49,25.49,0,0,1,7.18-1.28Zm0,3.19a19.54,19.54,0,0,0-5.76,1,2.58,2.58,0,0,0-1.87,2.51c0,1.71,1.19,2.54,3,2.54a4.49,4.49,0,0,0,4.45-3.48,8.61,8.61,0,0,0,.19-1.77Z"/><path class="cls-1" d="M269.12,3.83a2.3,2.3,0,0,1-.55-1.63,2.25,2.25,0,0,1,.55-1.6,2.16,2.16,0,0,1,3,0,2.3,2.3,0,0,1,.54,1.6,2.3,2.3,0,0,1-.55,1.63,2.15,2.15,0,0,1-3,0Zm2.7-.27a2,2,0,0,0,.43-1.36,1.93,1.93,0,0,0-.44-1.34,1.51,1.51,0,0,0-1.2-.49,1.55,1.55,0,0,0-1.21.49A2,2,0,0,0,269,2.2a2,2,0,0,0,.43,1.37,1.52,1.52,0,0,0,1.21.49A1.49,1.49,0,0,0,271.82,3.56ZM270,1h.72a.64.64,0,0,1,.72.72.66.66,0,0,1-.34.64l.41,1.1H271l-.36-1h-.27v1H270ZM270.63,2a.35.35,0,0,0,.26-.08.41.41,0,0,0,.08-.28.37.37,0,0,0-.08-.26.35.35,0,0,0-.26-.08h-.26V2Z"/></g></g></svg>